<svg width="100" height="100" viewBox="0 0 500 500" fill="none" xmlns="http://www.w3.org/2000/svg">
<path d="M289.788 152.221C288.571 151.004 286.597 151.004 285.38 152.221C284.163 153.438 284.163 155.412 285.38 156.629L323.949 195.198C325.167 196.416 327.14 196.416 328.357 195.198C329.575 193.981 329.575 192.008 328.357 190.79L289.788 152.221Z" fill="#E73828"/>
<path fill-rule="evenodd" clip-rule="evenodd" d="M370 205C370 138.726 316.274 85 250 85C183.726 85 130 138.726 130 205C130 271.274 183.726 325 250 325H370V205ZM275.462 131.283C271.81 127.632 265.89 127.632 262.238 131.283L153.693 239.829C151.563 241.959 151.563 245.412 153.693 247.543C155.823 249.673 159.277 249.673 161.407 247.543L222.567 186.382C229.87 179.079 241.711 179.079 249.014 186.382L308.522 245.89C312.173 249.541 318.094 249.541 321.745 245.89L349.295 218.34C352.947 214.688 352.947 208.768 349.295 205.116L275.462 131.283ZM200.426 222.404C200.426 219.607 202.694 217.339 205.491 217.339H237.439C240.237 217.339 242.504 219.607 242.504 222.404C242.504 225.202 240.237 227.469 237.439 227.469H205.491C202.694 227.469 200.426 225.202 200.426 222.404Z" fill="#E73828"/>
<path fill-rule="evenodd" clip-rule="evenodd" d="M291.291 410.067C295.517 412.89 300.486 414.398 305.569 414.398C308.945 414.404 312.29 413.744 315.411 412.455C318.532 411.166 321.368 409.273 323.756 406.886C326.143 404.498 328.036 401.662 329.325 398.541C330.614 395.42 331.274 392.076 331.268 388.699C331.268 383.616 329.76 378.647 326.936 374.421C324.113 370.195 320.099 366.901 315.403 364.956C310.707 363.011 305.54 362.502 300.555 363.494C295.57 364.485 290.991 366.933 287.397 370.527C283.803 374.121 281.355 378.7 280.364 383.685C279.372 388.67 279.881 393.837 281.826 398.533C283.771 403.229 287.065 407.243 291.291 410.067ZM293.01 397.043C291.34 394.581 290.434 391.68 290.406 388.705C290.42 384.686 292.016 380.833 294.85 377.981C297.689 375.124 301.541 373.503 305.569 373.47C308.546 373.484 311.453 374.377 313.924 376.038C316.395 377.699 318.319 380.053 319.456 382.805C320.592 385.557 320.889 388.583 320.31 391.504C319.73 394.424 318.301 397.108 316.2 399.218C314.099 401.328 311.422 402.769 308.504 403.361C305.586 403.953 302.558 403.669 299.801 402.545C297.044 401.421 294.682 399.506 293.01 397.043Z" fill="#E73828"/>
<path fill-rule="evenodd" clip-rule="evenodd" d="M66.0972 413.116C64.3689 413.116 63.5416 411.858 64.2581 410.318L84.3262 367.086C84.7526 366.283 85.3856 365.602 86.1628 365.111C86.94 364.621 87.8344 364.337 88.7579 364.288H93.5293C94.4548 364.333 95.352 364.615 96.1301 365.108C96.9082 365.601 97.5398 366.285 97.961 367.093L117.719 410.31C118.421 411.858 117.586 413.116 115.858 413.116H111.507C110.582 413.07 109.685 412.787 108.907 412.295C108.129 411.802 107.497 411.118 107.076 410.31L104.727 405.112C104.306 404.302 103.675 403.616 102.897 403.122C102.119 402.628 101.221 402.344 100.295 402.299H81.3496C80.4221 402.348 79.5228 402.628 78.7378 403.115C77.9529 403.601 77.3085 404.276 76.8662 405.075L74.3106 410.339C73.8672 411.139 73.2214 411.815 72.4352 412.301C71.6489 412.787 70.7485 413.068 69.8198 413.116H66.0972ZM91.3283 373.464C91.3283 373.464 90.73 374.729 90.0431 376.283L84.1342 389.544C83.4473 391.099 84.2967 392.364 86.025 392.364H96.3213C98.0496 392.364 98.9212 391.092 98.2491 389.53L92.5691 376.298C91.9118 374.736 91.3504 373.464 91.3283 373.464Z" fill="#E73828"/>
<path d="M170.525 410.157C170.263 410.988 169.751 411.718 169.058 412.247C168.365 412.777 167.525 413.08 166.653 413.116H162.108C161.239 413.082 160.402 412.777 159.716 412.244C159.03 411.71 158.53 410.975 158.286 410.143L151.483 382.874C151.071 381.236 150.709 379.901 150.665 379.901C150.622 379.901 150.267 381.244 149.869 382.882L143.175 410.136C142.935 410.969 142.437 411.706 141.752 412.242C141.067 412.777 140.23 413.083 139.361 413.116H134.62C133.747 413.08 132.907 412.776 132.215 412.245C131.523 411.714 131.013 410.982 130.755 410.15L119.371 367.259C119.252 366.909 119.222 366.535 119.283 366.17C119.344 365.805 119.494 365.461 119.72 365.168C119.947 364.875 120.242 364.642 120.579 364.489C120.917 364.337 121.288 364.27 121.658 364.294H126.268C127.129 364.324 127.957 364.633 128.626 365.175C129.295 365.717 129.768 366.461 129.974 367.295L135.648 394.643C135.988 396.296 136.487 397.616 136.748 397.58C137.008 397.544 137.573 396.173 137.993 394.542L144.97 367.267C145.22 366.434 145.725 365.7 146.414 365.167C147.103 364.634 147.941 364.329 148.813 364.294H152.735C153.604 364.329 154.44 364.636 155.124 365.171C155.809 365.705 156.307 366.441 156.549 367.274L163.432 394.946C163.838 396.584 164.388 397.941 164.655 397.955C164.923 397.97 165.423 396.642 165.777 394.99L171.69 367.295C171.9 366.461 172.376 365.716 173.047 365.175C173.718 364.634 174.547 364.324 175.41 364.294H179.81C180.181 364.267 180.552 364.333 180.891 364.485C181.23 364.637 181.526 364.87 181.752 365.164C181.978 365.458 182.127 365.803 182.186 366.169C182.245 366.535 182.212 366.91 182.09 367.259L170.525 410.157Z" fill="#E73828"/>
<path d="M197.546 394.647C198.13 394.074 198.921 393.751 199.747 393.749H216.158C216.984 393.745 217.776 393.42 218.36 392.846C218.943 392.271 219.272 391.493 219.274 390.682V387.327C219.272 386.516 218.943 385.739 218.359 385.165C217.775 384.592 216.984 384.269 216.158 384.267H199.747C198.921 384.265 198.13 383.942 197.546 383.369C196.961 382.795 196.633 382.018 196.631 381.207V376.347C196.633 375.536 196.961 374.759 197.546 374.186C198.13 373.612 198.921 373.289 199.747 373.287H219.142C219.968 373.286 220.76 372.963 221.344 372.389C221.928 371.816 222.257 371.039 222.259 370.228V367.348C222.257 366.537 221.928 365.76 221.344 365.186C220.76 364.613 219.968 364.29 219.142 364.288H189.188C188.363 364.292 187.572 364.615 186.988 365.188C186.405 365.761 186.075 366.537 186.071 367.348V410.056C186.075 410.866 186.405 411.642 186.988 412.215C187.572 412.788 188.363 413.112 189.188 413.116H221.503C222.329 413.114 223.121 412.791 223.705 412.217C224.289 411.644 224.618 410.867 224.62 410.056V407.176C224.618 406.365 224.289 405.588 223.705 405.015C223.121 404.441 222.329 404.118 221.503 404.116H199.747C198.92 404.112 198.129 403.788 197.545 403.213C196.961 402.639 196.633 401.861 196.631 401.049V396.809C196.633 395.998 196.961 395.221 197.546 394.647Z" fill="#E73828"/>
<path d="M265.17 396.945C265.166 396.134 264.831 395.357 264.237 394.783C263.643 394.21 262.839 393.888 261.999 393.886H234.206C233.367 393.884 232.564 393.561 231.971 392.987C231.378 392.414 231.044 391.637 231.042 390.826V367.348C231.046 366.537 231.381 365.761 231.973 365.188C232.566 364.615 233.368 364.292 234.206 364.288H238.672C239.51 364.292 240.312 364.615 240.904 365.188C241.497 365.761 241.831 366.537 241.835 367.348V380.394C241.839 381.204 242.174 381.98 242.766 382.553C243.359 383.126 244.161 383.45 244.999 383.453H272.852C273.69 383.455 274.494 383.778 275.087 384.352C275.679 384.925 276.013 385.702 276.015 386.513V410.056C276.013 410.867 275.679 411.644 275.087 412.217C274.494 412.791 273.69 413.114 272.852 413.116H268.326C267.488 413.114 266.684 412.791 266.092 412.217C265.499 411.644 265.165 410.867 265.163 410.056L265.17 396.945Z" fill="#E73828"/>
<path d="M338.99 367.356C338.994 366.543 339.317 365.763 339.889 365.188C340.461 364.614 341.235 364.29 342.043 364.288H349.797C350.704 364.34 351.585 364.616 352.362 365.09C353.139 365.565 353.789 366.224 354.254 367.01L362.624 383.117C363.405 384.612 364.667 384.612 365.433 383.117L373.646 367.017C374.103 366.228 374.748 365.566 375.522 365.089C376.297 364.613 377.176 364.338 378.082 364.288H386.043C386.85 364.292 387.622 364.616 388.193 365.191C388.763 365.766 389.085 366.544 389.089 367.356V410.047C389.085 410.86 388.763 411.638 388.193 412.213C387.622 412.787 386.85 413.112 386.043 413.116H382.159C381.351 413.114 380.577 412.79 380.005 412.215C379.433 411.641 379.11 410.861 379.106 410.047V381.673C379.106 379.984 379.106 378.605 379.042 378.605C378.987 378.605 378.539 379.502 377.939 380.702C377.833 380.914 377.723 381.135 377.609 381.363L369.49 398.07C369.049 398.865 368.416 399.535 367.649 400.017C366.882 400.5 366.007 400.778 365.104 400.828H362.954C362.051 400.778 361.176 400.5 360.408 400.019C359.64 399.538 359.005 398.87 358.561 398.077L350.592 381.673C349.876 380.164 349.209 378.923 349.159 378.923C349.109 378.923 349.095 380.309 349.095 381.991V410.047C349.091 410.861 348.768 411.641 348.196 412.215C347.624 412.79 346.85 413.114 346.042 413.116H342.029C341.221 413.114 340.447 412.79 339.875 412.215C339.303 411.641 338.98 410.861 338.976 410.047L338.99 367.356Z" fill="#E73828"/>
<path d="M409.559 394.647C410.143 394.074 410.934 393.751 411.76 393.749H428.164C428.991 393.745 429.783 393.421 430.368 392.846C430.953 392.272 431.284 391.494 431.287 390.682V387.327C431.284 386.515 430.953 385.738 430.368 385.165C429.783 384.592 428.99 384.269 428.164 384.267H411.76C410.934 384.265 410.143 383.942 409.559 383.369C408.975 382.795 408.646 382.018 408.644 381.207V376.347C408.646 375.536 408.975 374.759 409.559 374.186C410.143 373.612 410.934 373.289 411.76 373.287H431.155C431.981 373.286 432.773 372.963 433.357 372.389C433.941 371.816 434.27 371.039 434.272 370.228V367.348C434.27 366.537 433.941 365.76 433.357 365.186C432.773 364.613 431.981 364.29 431.155 364.288H401.201C400.375 364.29 399.584 364.613 399 365.186C398.416 365.76 398.087 366.537 398.085 367.348V410.056C398.087 410.867 398.416 411.644 399 412.217C399.584 412.791 400.375 413.114 401.201 413.116H433.517C434.342 413.114 435.134 412.791 435.718 412.217C436.302 411.644 436.631 410.867 436.633 410.056V407.176C436.631 406.365 436.302 405.588 435.718 405.015C435.134 404.441 434.342 404.118 433.517 404.116H411.76C410.934 404.112 410.142 403.788 409.558 403.213C408.974 402.639 408.646 401.861 408.644 401.049V396.809C408.646 395.998 408.975 395.221 409.559 394.647Z" fill="#E73828"/>
<path d="M272.621 364.293H267.84C265.967 364.293 264.448 365.643 264.448 367.308V371.557C264.448 373.223 265.967 374.573 267.84 374.573H272.621C274.494 374.573 276.013 373.223 276.013 371.557V367.308C276.013 365.643 274.494 364.293 272.621 364.293Z" fill="#29A7E2"/>
<path d="M239.215 402.834H234.434C232.561 402.834 231.042 404.184 231.042 405.849V410.098C231.042 411.764 232.561 413.113 234.434 413.113H239.215C241.088 413.113 242.606 411.764 242.606 410.098V405.849C242.606 404.184 241.088 402.834 239.215 402.834Z" fill="#29A7E2"/>
</svg>
