<svg width="70" height="70" viewBox="0 0 500 500" fill="none" xmlns="http://www.w3.org/2000/svg">
<path d="M287.798 131.86C286.642 130.704 284.767 130.704 283.611 131.86C282.455 133.016 282.455 134.891 283.611 136.047L320.252 172.688C321.408 173.845 323.283 173.845 324.439 172.688C325.596 171.532 325.596 169.657 324.439 168.501L287.798 131.86Z" fill="#E73828"/>
<path fill-rule="evenodd" clip-rule="evenodd" d="M364 182C364 119.04 312.96 68 250 68C187.04 68 136 119.04 136 182C136 244.96 187.04 296 250 296H364V182ZM274.189 111.969C270.72 108.5 265.095 108.5 261.626 111.969L158.508 215.087C156.485 217.111 156.485 220.392 158.508 222.415C160.532 224.439 163.813 224.439 165.836 222.415L223.938 164.313C230.877 157.375 242.126 157.375 249.064 164.313L305.596 220.845C309.065 224.314 314.689 224.314 318.158 220.845L344.33 194.673C347.799 191.204 347.799 185.579 344.33 182.11L274.189 111.969ZM202.905 198.534C202.905 195.877 205.059 193.722 207.717 193.722H238.067C240.725 193.722 242.879 195.877 242.879 198.534C242.879 201.191 240.725 203.346 238.067 203.346H207.717C205.059 203.346 202.905 201.191 202.905 198.534Z" fill="#E73828"/>
<path d="M161.995 379.789H156.069C154.433 379.789 153.106 381.218 153.106 382.98C153.106 384.742 154.433 386.171 156.069 386.171H161.995C163.632 386.171 164.958 384.742 164.958 382.98C164.958 381.218 163.632 379.789 161.995 379.789Z" fill="#E73828"/>
<path d="M305.876 379.789H261.074C259.348 379.789 257.949 381.218 257.949 382.98C257.949 384.742 259.348 386.171 261.074 386.171H305.876C307.603 386.171 309.002 384.742 309.002 382.98C309.002 381.218 307.603 379.789 305.876 379.789Z" fill="#3C3C3C"/>
<path d="M299.516 344.234H267.435C265.721 344.234 264.331 345.663 264.331 347.425C264.331 349.187 265.721 350.616 267.435 350.616H299.516C301.231 350.616 302.621 349.187 302.621 347.425C302.621 345.663 301.231 344.234 299.516 344.234Z" fill="#3C3C3C"/>
<path d="M281.926 326.768L256.701 341.332C255.218 342.188 254.71 344.084 255.566 345.567C256.422 347.049 258.318 347.557 259.801 346.701L285.026 332.137C286.509 331.281 287.017 329.385 286.161 327.903C285.305 326.42 283.409 325.912 281.926 326.768Z" fill="#3C3C3C"/>
<path d="M281.946 332.145L307.171 346.709C308.654 347.565 310.55 347.057 311.406 345.574C312.262 344.092 311.754 342.196 310.271 341.34L285.046 326.776C283.563 325.92 281.667 326.428 280.811 327.911C279.955 329.393 280.463 331.289 281.946 332.145Z" fill="#3C3C3C"/>
<path d="M300.034 362.468H266.918C265.489 362.468 264.331 363.693 264.331 365.203C264.331 366.714 265.489 367.938 266.918 367.938H300.034C301.462 367.938 302.621 366.714 302.621 365.203C302.621 363.693 301.462 362.468 300.034 362.468Z" fill="#3C3C3C"/>
<path d="M279.829 382.288C279.829 384.433 281.666 386.171 283.932 386.171C286.198 386.171 288.034 384.433 288.034 382.288V348.118C288.034 345.973 286.198 344.235 283.932 344.235C281.666 344.235 279.829 345.973 279.829 348.118V382.288Z" fill="#3C3C3C"/>
<path d="M414.381 344.234H394.164C392.446 344.234 391.053 345.663 391.053 347.425C391.053 349.187 392.446 350.616 394.164 350.616H414.381C416.099 350.616 417.492 349.187 417.492 347.425C417.492 345.663 416.099 344.234 414.381 344.234Z" fill="#3C3C3C"/>
<path d="M440.787 329.647H422.457C420.721 329.647 419.314 330.872 419.314 332.382C419.314 333.893 420.721 335.117 422.457 335.117H440.787C442.522 335.117 443.929 333.893 443.929 332.382C443.929 330.872 442.522 329.647 440.787 329.647Z" fill="#3C3C3C"/>
<path d="M445.339 377.054H416.994C415.255 377.054 413.845 378.483 413.845 380.245C413.845 382.007 415.255 383.436 416.994 383.436H445.339C447.078 383.436 448.488 382.007 448.488 380.245C448.488 378.483 447.078 377.054 445.339 377.054Z" fill="#3C3C3C"/>
<path d="M414.757 370.875V353.149C414.757 351.75 413.532 350.616 412.022 350.616C410.511 350.616 409.287 351.75 409.287 353.149V370.875C409.287 372.274 410.511 373.408 412.022 373.408C413.532 373.408 414.757 372.274 414.757 370.875Z" fill="#3C3C3C"/>
<path d="M412.185 326H397.271C395.851 326 394.7 327.225 394.7 328.735C394.7 330.246 395.851 331.47 397.271 331.47H412.185C413.605 331.47 414.756 330.246 414.756 328.735C414.756 327.225 413.605 326 412.185 326Z" fill="#3C3C3C"/>
<path d="M441.311 346.058H421.933C420.487 346.058 419.314 347.282 419.314 348.793C419.314 350.303 420.487 351.528 421.933 351.528H441.311C442.757 351.528 443.929 350.303 443.929 348.793C443.929 347.282 442.757 346.058 441.311 346.058Z" fill="#3C3C3C"/>
<path d="M441.311 362.468H421.933C420.487 362.468 419.314 363.693 419.314 365.203C419.314 366.714 420.487 367.938 421.933 367.938H441.311C442.757 367.938 443.929 366.714 443.929 365.203C443.929 363.693 442.757 362.468 441.311 362.468Z" fill="#3C3C3C"/>
<path d="M400.169 378.108V353.21C400.169 351.777 398.945 350.616 397.434 350.616C395.924 350.616 394.699 351.777 394.699 353.21V378.108C394.699 379.54 395.924 380.701 397.434 380.701C398.945 380.701 400.169 379.54 400.169 378.108Z" fill="#3C3C3C"/>
<path d="M401.081 382.281C401.081 384.43 402.714 386.171 404.728 386.171C406.742 386.171 408.374 384.43 408.374 382.281V329.892C408.374 327.743 406.742 326.001 404.728 326.001C402.714 326.001 401.081 327.743 401.081 329.892V382.281Z" fill="#3C3C3C"/>
<path d="M419.314 379.558C419.314 381.7 421.151 383.437 423.417 383.437C425.682 383.437 427.519 381.7 427.519 379.558V333.527C427.519 331.385 425.682 329.648 423.417 329.648C421.151 329.648 419.314 331.385 419.314 333.527V379.558Z" fill="#3C3C3C"/>
<path d="M435.725 379.558C435.725 381.7 437.561 383.437 439.827 383.437C442.093 383.437 443.93 381.7 443.93 379.558V333.527C443.93 331.385 442.093 329.648 439.827 329.648C437.561 329.648 435.725 331.385 435.725 333.527V379.558Z" fill="#3C3C3C"/>
<path d="M341.489 330.558H326.658C324.963 330.558 323.589 331.987 323.589 333.749C323.589 335.512 324.963 336.94 326.658 336.94H341.489C343.184 336.94 344.558 335.512 344.558 333.749C344.558 331.987 343.184 330.558 341.489 330.558Z" fill="#3C3C3C"/>
<path d="M376.493 336.941H349.089C347.09 336.941 345.469 338.573 345.469 340.587C345.469 342.601 347.09 344.234 349.089 344.234H376.493C378.492 344.234 380.113 342.601 380.113 340.587C380.113 338.573 378.492 336.941 376.493 336.941Z" fill="#3C3C3C"/>
<path d="M363.312 379.789H354.977C353.251 379.789 351.851 381.218 351.851 382.98C351.851 384.742 353.251 386.171 354.977 386.171H363.312C365.039 386.171 366.438 384.742 366.438 382.98C366.438 381.218 365.039 379.789 363.312 379.789Z" fill="#3C3C3C"/>
<path d="M354.586 373.079V366.442C354.586 364.75 353.157 363.379 351.395 363.379C349.633 363.379 348.204 364.75 348.204 366.442V373.079C348.204 374.771 349.633 376.142 351.395 376.142C353.157 376.142 354.586 374.771 354.586 373.079Z" fill="#3C3C3C"/>
<path d="M354.586 357.362V350.251C354.586 348.438 353.157 346.969 351.395 346.969C349.633 346.969 348.204 348.438 348.204 350.251V357.362C348.204 359.174 349.633 360.644 351.395 360.644C353.157 360.644 354.586 359.174 354.586 357.362Z" fill="#3C3C3C"/>
<path d="M377.378 357.362V350.251C377.378 348.438 375.949 346.969 374.187 346.969C372.425 346.969 370.996 348.438 370.996 350.251V357.362C370.996 359.174 372.425 360.644 374.187 360.644C375.949 360.644 377.378 359.174 377.378 357.362Z" fill="#3C3C3C"/>
<path d="M377.378 373.079V366.442C377.378 364.75 375.949 363.379 374.187 363.379C372.425 363.379 370.996 364.75 370.996 366.442V373.079C370.996 374.771 372.425 376.142 374.187 376.142C375.949 376.142 377.378 374.771 377.378 373.079Z" fill="#3C3C3C"/>
<path d="M340.147 349.703H326.177C324.748 349.703 323.589 350.724 323.589 351.983C323.589 353.241 324.748 354.262 326.177 354.262H340.147C341.576 354.262 342.734 353.241 342.734 351.983C342.734 350.724 341.576 349.703 340.147 349.703Z" fill="#3C3C3C"/>
<path d="M343.317 370.041L327.867 374.183C326.145 374.644 325.124 376.414 325.585 378.135C326.047 379.857 327.816 380.878 329.538 380.417L344.988 376.276C346.71 375.814 347.731 374.045 347.27 372.323C346.808 370.602 345.039 369.58 343.317 370.041Z" fill="#3C3C3C"/>
<path d="M359.144 382.281C359.144 384.43 360.777 386.171 362.791 386.171C364.805 386.171 366.438 384.43 366.438 382.281V329.892C366.438 327.743 364.805 326.001 362.791 326.001C360.777 326.001 359.144 327.743 359.144 329.892V382.281Z" fill="#3C3C3C"/>
<path d="M329.971 373.18C329.971 375.32 331.808 377.054 334.073 377.054C336.339 377.054 338.176 375.32 338.176 373.18V334.434C338.176 332.294 336.339 330.559 334.073 330.559C331.808 330.559 329.971 332.294 329.971 334.434V373.18Z" fill="#3C3C3C"/>
<path d="M370.996 331.014C370.996 333.28 372.629 335.117 374.643 335.117C376.657 335.117 378.29 333.28 378.29 331.014C378.29 328.749 376.657 326.912 374.643 326.912C372.629 326.912 370.996 328.749 370.996 331.014Z" fill="#3C3C3C"/>
<path fill-rule="evenodd" clip-rule="evenodd" d="M62.461 326H54.1257C52.3994 326 51 327.429 51 329.191C51 330.953 52.3994 332.382 54.1257 332.382H57.3812V360.409C57.3812 362.553 59.2179 364.29 61.4837 364.29C62.9505 364.29 64.2376 363.562 64.9629 362.467H84.6357C84.6678 362.468 84.6999 362.468 84.7322 362.468C84.7645 362.468 84.7967 362.468 84.8288 362.467H104.422C106.135 362.467 107.523 361.242 107.523 359.732C107.523 358.221 106.135 356.997 104.422 356.997H88.3789V354.262H102.183C103.622 354.262 104.788 353.038 104.788 351.527C104.788 350.017 103.622 348.792 102.183 348.792H88.3789V346.058H102.183C103.622 346.058 104.788 345.037 104.788 343.778C104.788 342.52 103.622 341.499 102.183 341.499H88.3789V338.764H104.422C106.135 338.764 107.523 337.335 107.523 335.573C107.523 333.811 106.135 332.382 104.422 332.382H87.7651C88.1528 331.731 88.3789 330.947 88.3789 330.104C88.3789 327.838 86.7462 326.001 84.7322 326.001C82.7182 326.001 81.0856 327.838 81.0856 330.104C81.0856 330.947 81.3116 331.731 81.6993 332.382H65.5862V329.881C65.5862 329.762 65.5805 329.644 65.5695 329.528C65.5809 329.417 65.5867 329.305 65.5867 329.191C65.5867 327.429 64.1873 326 62.461 326ZM81.0856 354.262V356.997H65.5862V354.262H81.0856ZM81.0856 346.058V348.792H65.5862V346.058H81.0856ZM81.0856 338.764V341.499H65.5862V338.764H81.0856Z" fill="#E73828"/>
<path d="M151.674 326H170.949C172.676 326 174.075 327.429 174.075 329.191C174.075 329.41 174.053 329.624 174.012 329.831C173.962 330.229 173.834 330.624 173.62 330.994L164.923 346.058H173.711C175.423 346.058 176.81 347.486 176.81 349.249C176.81 351.011 175.423 352.439 173.711 352.439H164.958V382.264C164.958 384.422 163.326 386.171 161.312 386.171C159.298 386.171 157.665 384.422 157.665 382.264V352.439H148.913C147.201 352.439 145.814 351.011 145.814 349.249C145.814 347.486 147.201 346.058 148.913 346.058H157.764L165.66 332.382H151.674C149.948 332.382 148.548 330.953 148.548 329.191C148.548 327.429 149.948 326 151.674 326Z" fill="#E73828"/>
<path fill-rule="evenodd" clip-rule="evenodd" d="M122.566 332.382H125.757V329.919C125.757 327.755 127.594 326.001 129.859 326.001C132.125 326.001 133.962 327.755 133.962 329.919V332.382H141.711C143.474 332.382 144.902 333.811 144.902 335.573C144.902 335.686 144.896 335.798 144.885 335.907C144.896 336.024 144.902 336.142 144.902 336.262V366.138C146.444 366.335 147.637 367.677 147.637 369.305C147.637 370.932 146.444 372.274 144.902 372.471V382.292C144.902 384.435 143.065 386.171 140.799 386.171C138.534 386.171 136.697 384.435 136.697 382.292V372.495H129.927C129.904 372.496 129.882 372.496 129.859 372.496C129.837 372.496 129.814 372.496 129.792 372.495H128.882C127.156 372.495 125.757 371.067 125.757 369.305C125.757 369.186 125.763 369.068 125.775 368.952C125.763 368.829 125.757 368.704 125.757 368.578V338.764H122.566C120.804 338.764 119.375 337.335 119.375 335.573C119.375 333.811 120.804 332.382 122.566 332.382ZM136.697 366.114V338.764H133.962V366.114H136.697Z" fill="#E73828"/>
<path d="M54.0831 366.114H75.6258C75.7695 364.074 77.3425 362.468 79.2618 362.468C81.181 362.468 82.754 364.074 82.8977 366.114H104.44C106.143 366.114 107.523 367.542 107.523 369.305C107.523 371.067 106.143 372.495 104.44 372.495H82.9084V382.221C82.9084 384.403 81.2758 386.171 79.2618 386.171C77.2478 386.171 75.6151 384.403 75.6151 382.221V372.495H69.2332V379.5C69.2332 381.674 67.6005 383.437 65.5865 383.437C63.5725 383.437 61.9398 381.674 61.9398 379.5L61.9398 372.495H54.0831C52.3804 372.495 51 371.067 51 369.305C51 367.542 52.3804 366.114 54.0831 366.114Z" fill="#E73828"/>
<path d="M211.454 330.104C211.454 330.947 211.708 331.731 212.144 332.382H191.009C190.996 332.382 190.983 332.382 190.971 332.382C190.961 332.382 190.951 332.382 190.941 332.382C190.918 332.382 190.896 332.382 190.873 332.382H189.921C188.218 332.382 186.838 333.811 186.838 335.573C186.838 335.699 186.845 335.822 186.859 335.944C186.845 336.074 186.838 336.207 186.838 336.34V338.452C186.838 340.638 188.675 342.41 190.941 342.41C193.098 342.41 194.866 340.804 195.031 338.764H236.08C236.227 340.804 237.798 342.41 239.715 342.41C241.729 342.41 243.362 340.638 243.362 338.452V336.34C243.362 336.202 243.355 336.064 243.343 335.929C243.355 335.812 243.362 335.694 243.362 335.573C243.362 333.811 241.981 332.382 240.279 332.382H239.776C239.756 332.382 239.736 332.382 239.715 332.382L239.696 332.382L239.655 332.382H218.968C219.404 331.731 219.659 330.947 219.659 330.104C219.659 327.838 217.822 326.001 215.556 326.001C213.29 326.001 211.454 327.838 211.454 330.104Z" fill="#E73828"/>
<path d="M199.06 341.499H210.366C211.212 341.188 212.161 341.173 213.043 341.499H231.141C232.855 341.499 234.245 342.724 234.245 344.234C234.245 345.745 232.855 346.969 231.141 346.969H215.117C215.099 347.004 215.079 347.039 215.059 347.073L213.014 350.616H226.573C228.293 350.616 229.687 352.045 229.687 353.807C229.687 353.921 229.681 354.034 229.669 354.146C229.681 354.275 229.688 354.406 229.688 354.538V382.25C229.688 382.382 229.681 382.513 229.67 382.642C229.681 382.753 229.687 382.866 229.687 382.98C229.687 384.742 228.259 386.171 226.496 386.171H226.109L226.066 386.171L226.041 386.171C226.018 386.171 225.995 386.171 225.973 386.171H220.115C218.352 386.171 216.924 384.742 216.924 382.98C216.924 381.218 218.352 379.789 220.115 379.789H222.394V361.531L209.476 383.906C208.406 385.76 206.036 386.395 204.183 385.325C202.329 384.255 201.694 381.885 202.764 380.031L216.063 356.998H209.33L197.075 378.223C196.005 380.076 193.636 380.711 191.782 379.641C189.929 378.571 189.294 376.201 190.364 374.348L200.381 356.998H199.069C197.349 356.998 195.955 355.569 195.955 353.807C195.955 352.045 197.349 350.616 199.069 350.616H204.066L206.171 346.969H199.06C197.345 346.969 195.955 345.745 195.955 344.234C195.955 342.724 197.345 341.499 199.06 341.499Z" fill="#E73828"/>
<path d="M232.422 382.314C232.422 384.445 234.259 386.171 236.525 386.171C238.791 386.171 240.627 384.445 240.627 382.314V369.972C240.627 367.842 238.791 366.115 236.525 366.115C234.259 366.115 232.422 367.842 232.422 369.972V382.314Z" fill="#E73828"/>
<path d="M236.525 363.379C234.259 363.379 232.422 361.746 232.422 359.732C232.422 357.718 234.259 356.085 236.525 356.085C238.791 356.085 240.627 357.718 240.627 359.732C240.627 361.746 238.791 363.379 236.525 363.379Z" fill="#2CA6E0"/>
<path d="M92.4804 383.437C90.2147 383.437 88.3779 381.6 88.3779 379.334C88.3779 377.068 90.2147 375.232 92.4804 375.232C94.7462 375.232 96.583 377.068 96.583 379.334C96.583 381.6 94.7462 383.437 92.4804 383.437Z" fill="#2CA6E0"/>
<path fill-rule="evenodd" clip-rule="evenodd" d="M213.176 429.565C216.174 431.569 219.699 432.638 223.306 432.638C225.701 432.643 228.075 432.175 230.289 431.26C232.503 430.345 234.515 429.003 236.209 427.309C237.903 425.614 239.246 423.602 240.161 421.388C241.075 419.174 241.544 416.801 241.539 414.405C241.539 410.799 240.47 407.273 238.466 404.275C236.463 401.276 233.615 398.939 230.283 397.559C226.952 396.179 223.285 395.818 219.748 396.522C216.212 397.225 212.963 398.962 210.413 401.512C207.863 404.062 206.126 407.311 205.423 410.848C204.719 414.385 205.08 418.051 206.46 421.382C207.84 424.714 210.177 427.562 213.176 429.565ZM214.395 420.325C213.21 418.578 212.567 416.52 212.548 414.41C212.558 411.558 213.69 408.824 215.701 406.801C217.715 404.774 220.448 403.624 223.306 403.6C225.418 403.61 227.48 404.243 229.234 405.422C230.987 406.6 232.352 408.271 233.158 410.223C233.965 412.176 234.175 414.323 233.764 416.395C233.353 418.467 232.339 420.371 230.848 421.868C229.358 423.365 227.458 424.388 225.388 424.808C223.318 425.228 221.17 425.026 219.214 424.229C217.258 423.431 215.581 422.073 214.395 420.325Z" fill="#E73828"/>
<path fill-rule="evenodd" clip-rule="evenodd" d="M53.4001 431.726C52.1738 431.726 51.5869 430.833 52.0952 429.741L66.3336 399.068C66.6361 398.498 67.0852 398.015 67.6366 397.667C68.1881 397.319 68.8227 397.117 69.4779 397.082H72.8632C73.5199 397.114 74.1564 397.315 74.7085 397.664C75.2605 398.014 75.7086 398.5 76.0075 399.073L90.0258 429.735C90.5237 430.833 89.9315 431.726 88.7052 431.726H85.6186C84.9621 431.694 84.3258 431.493 83.7738 431.143C83.2218 430.794 82.7736 430.308 82.4743 429.735L80.8078 426.047C80.5096 425.473 80.0618 424.986 79.5097 424.635C78.9576 424.285 78.3207 424.083 77.6635 424.051H64.2217C63.5636 424.086 62.9256 424.285 62.3686 424.63C61.8117 424.975 61.3545 425.454 61.0407 426.021L59.2275 429.756C58.9129 430.324 58.4547 430.803 57.8969 431.148C57.3391 431.493 56.7002 431.692 56.0413 431.726H53.4001ZM71.3016 403.593C71.3016 403.593 70.8771 404.49 70.3897 405.593L66.1973 415.002C65.71 416.105 66.3126 417.003 67.5389 417.003H74.8441C76.0704 417.003 76.6888 416.1 76.2119 414.992L72.182 405.604C71.7156 404.495 71.3173 403.593 71.3016 403.593Z" fill="#E73828"/>
<path d="M127.492 429.627C127.306 430.216 126.943 430.734 126.451 431.11C125.959 431.485 125.363 431.7 124.744 431.726H121.52C120.903 431.702 120.309 431.486 119.823 431.107C119.336 430.729 118.981 430.207 118.808 429.617L113.982 410.27C113.689 409.107 113.432 408.16 113.401 408.16C113.37 408.16 113.119 409.113 112.836 410.275L108.087 429.611C107.916 430.203 107.563 430.726 107.077 431.106C106.591 431.485 105.997 431.702 105.38 431.726H102.017C101.398 431.701 100.802 431.485 100.311 431.108C99.8199 430.731 99.458 430.212 99.275 429.622L91.1977 399.191C91.1137 398.942 91.0923 398.677 91.1356 398.418C91.1788 398.159 91.2854 397.915 91.4458 397.707C91.6062 397.499 91.8155 397.333 92.0552 397.225C92.295 397.117 92.5578 397.069 92.8204 397.087H96.0913C96.7023 397.108 97.2897 397.327 97.7641 397.712C98.2386 398.096 98.5744 398.624 98.7204 399.216L102.746 418.62C102.988 419.792 103.342 420.729 103.527 420.703C103.712 420.678 104.112 419.705 104.41 418.548L109.36 399.196C109.538 398.605 109.896 398.084 110.385 397.706C110.874 397.328 111.469 397.112 112.087 397.087H114.87C115.486 397.112 116.079 397.329 116.565 397.709C117.051 398.088 117.404 398.61 117.576 399.201L122.459 418.835C122.747 419.997 123.137 420.959 123.327 420.97C123.517 420.98 123.871 420.038 124.123 418.865L128.318 399.216C128.467 398.624 128.805 398.096 129.281 397.712C129.757 397.328 130.346 397.108 130.958 397.087H134.08C134.343 397.068 134.606 397.114 134.847 397.222C135.087 397.33 135.297 397.496 135.457 397.704C135.618 397.913 135.723 398.158 135.765 398.417C135.807 398.677 135.784 398.942 135.697 399.191L127.492 429.627Z" fill="#E73828"/>
<path d="M146.662 418.622C147.076 418.215 147.638 417.986 148.224 417.985H159.867C160.453 417.982 161.015 417.752 161.429 417.344C161.844 416.937 162.077 416.385 162.078 415.809V413.429C162.077 412.853 161.843 412.302 161.429 411.895C161.015 411.488 160.453 411.259 159.867 411.258H148.224C147.638 411.256 147.076 411.027 146.662 410.62C146.247 410.213 146.014 409.662 146.012 409.087V405.639C146.014 405.063 146.247 404.512 146.662 404.105C147.076 403.698 147.638 403.469 148.224 403.468H161.984C162.57 403.466 163.132 403.237 163.546 402.83C163.961 402.423 164.194 401.872 164.196 401.297V399.253C164.194 398.678 163.961 398.127 163.546 397.72C163.132 397.313 162.57 397.084 161.984 397.082H140.732C140.146 397.085 139.585 397.315 139.171 397.721C138.757 398.128 138.523 398.678 138.521 399.253V429.555C138.523 430.13 138.757 430.681 139.171 431.087C139.585 431.494 140.146 431.723 140.732 431.726H163.66C164.246 431.725 164.807 431.495 165.222 431.089C165.636 430.682 165.869 430.13 165.871 429.555V427.512C165.869 426.936 165.636 426.385 165.222 425.978C164.807 425.571 164.246 425.342 163.66 425.341H148.224C147.637 425.338 147.076 425.108 146.661 424.7C146.247 424.292 146.014 423.74 146.012 423.165V420.156C146.014 419.581 146.247 419.029 146.662 418.622Z" fill="#E73828"/>
<path d="M194.643 420.253C194.64 419.677 194.402 419.126 193.981 418.719C193.559 418.312 192.989 418.083 192.393 418.082H172.674C172.079 418.081 171.509 417.852 171.088 417.445C170.668 417.038 170.431 416.486 170.429 415.911V399.253C170.432 398.678 170.669 398.128 171.09 397.721C171.51 397.315 172.079 397.085 172.674 397.082H175.842C176.437 397.085 177.006 397.315 177.426 397.721C177.847 398.128 178.084 398.678 178.087 399.253V408.509C178.09 409.084 178.327 409.635 178.747 410.042C179.168 410.448 179.737 410.678 180.331 410.68H200.093C200.688 410.682 201.258 410.911 201.679 411.318C202.099 411.725 202.336 412.276 202.338 412.851V429.555C202.336 430.13 202.099 430.682 201.679 431.089C201.258 431.495 200.688 431.725 200.093 431.726H196.882C196.287 431.725 195.717 431.495 195.297 431.089C194.876 430.682 194.639 430.13 194.638 429.555L194.643 420.253Z" fill="#E73828"/>
<path d="M247.019 399.26C247.022 398.682 247.251 398.129 247.657 397.721C248.062 397.313 248.612 397.084 249.185 397.082H254.686C255.33 397.12 255.955 397.315 256.506 397.652C257.057 397.988 257.518 398.456 257.849 399.014L263.787 410.442C264.341 411.502 265.236 411.502 265.78 410.442L271.607 399.019C271.932 398.459 272.389 397.989 272.938 397.651C273.488 397.313 274.112 397.118 274.754 397.082H280.403C280.975 397.085 281.523 397.315 281.928 397.723C282.333 398.131 282.561 398.683 282.564 399.26V429.549C282.561 430.125 282.333 430.678 281.928 431.085C281.523 431.493 280.975 431.723 280.403 431.726H277.647C277.074 431.725 276.525 431.495 276.119 431.087C275.713 430.679 275.484 430.126 275.481 429.549V409.416C275.481 408.218 275.481 407.24 275.436 407.24C275.397 407.24 275.079 407.877 274.653 408.728L274.648 408.739C274.575 408.886 274.498 409.039 274.419 409.197L268.658 421.051C268.346 421.615 267.896 422.09 267.352 422.433C266.808 422.775 266.187 422.973 265.546 423.007H264.021C263.381 422.972 262.76 422.775 262.215 422.434C261.67 422.092 261.219 421.619 260.904 421.056L255.251 409.417C254.742 408.347 254.269 407.466 254.234 407.466C254.198 407.466 254.188 408.449 254.188 409.643V429.549C254.185 430.126 253.956 430.679 253.55 431.087C253.145 431.495 252.595 431.725 252.022 431.726H249.175C248.602 431.725 248.052 431.495 247.646 431.087C247.241 430.679 247.011 430.126 247.009 429.549L247.019 399.26Z" fill="#E73828"/>
<path d="M297.087 418.622C297.502 418.215 298.063 417.986 298.649 417.985H310.287C310.874 417.982 311.436 417.752 311.852 417.345C312.267 416.937 312.501 416.385 312.504 415.809V413.429C312.501 412.853 312.266 412.301 311.851 411.895C311.436 411.488 310.874 411.259 310.287 411.258H298.649C298.063 411.256 297.502 411.027 297.087 410.62C296.673 410.213 296.439 409.662 296.438 409.087V405.639C296.439 405.063 296.673 404.512 297.087 404.105C297.502 403.698 298.063 403.469 298.649 403.468H312.41C312.996 403.466 313.558 403.237 313.972 402.83C314.386 402.423 314.62 401.872 314.621 401.297V399.253C314.62 398.678 314.386 398.127 313.972 397.72C313.558 397.313 312.996 397.084 312.41 397.082H291.157C290.571 397.084 290.01 397.313 289.595 397.72C289.181 398.127 288.948 398.678 288.946 399.253V429.555C288.948 430.13 289.181 430.682 289.595 431.089C290.01 431.495 290.571 431.725 291.157 431.726H314.085C314.671 431.725 315.233 431.495 315.647 431.089C316.062 430.682 316.295 430.13 316.296 429.555V427.512C316.295 426.936 316.062 426.385 315.647 425.978C315.233 425.571 314.671 425.342 314.085 425.341H298.649C298.063 425.338 297.501 425.108 297.087 424.7C296.673 424.292 296.439 423.74 296.438 423.165V420.156C296.439 419.581 296.673 419.029 297.087 418.622Z" fill="#E73828"/>
<path d="M196.539 397.082H199.931C201.26 397.082 202.338 398.04 202.338 399.222V402.237C202.338 403.418 201.26 404.376 199.931 404.376H196.539C195.21 404.376 194.133 403.418 194.133 402.237V399.222C194.133 398.04 195.21 397.082 196.539 397.082Z" fill="#2CA6E0"/>
<path d="M172.836 424.433H176.228C177.557 424.433 178.634 425.391 178.634 426.573V429.588C178.634 430.769 177.557 431.727 176.228 431.727H172.836C171.507 431.727 170.429 430.769 170.429 429.588V426.573C170.429 425.391 171.507 424.433 172.836 424.433Z" fill="#2CA6E0"/>
<path d="M411.091 397.072C410.522 397.646 410.201 398.423 410.198 399.235L410.208 429.575C410.211 430.387 410.532 431.164 411.101 431.738C411.67 432.312 412.441 432.636 413.246 432.638H414.714C415.519 432.637 416.292 432.314 416.862 431.74C417.432 431.166 417.754 430.388 417.756 429.575V410.164C417.756 408.482 417.772 407.101 417.803 407.101C417.834 407.101 418.459 408.336 419.203 409.847L424.514 420.698C424.957 421.49 425.59 422.157 426.356 422.637C427.121 423.117 427.995 423.394 428.895 423.443H428.947C429.847 423.395 430.721 423.117 431.486 422.636C432.251 422.155 432.883 421.486 433.323 420.693L438.696 409.596L438.803 409.376C439.487 407.967 440.031 406.846 440.08 406.846C440.132 406.846 440.132 408.226 440.132 409.908V429.575C440.135 430.387 440.456 431.164 441.025 431.738C441.594 432.312 442.365 432.636 443.17 432.638H444.539C445.344 432.636 446.115 432.312 446.684 431.738C447.253 431.164 447.574 430.387 447.577 429.575V399.245C447.574 398.434 447.253 397.656 446.684 397.082C446.115 396.508 445.344 396.185 444.539 396.182H440.132C439.228 396.231 438.35 396.506 437.578 396.981C436.805 397.457 436.161 398.118 435.704 398.906L430.275 409.544C429.51 411.034 428.254 411.039 427.48 409.544L421.941 398.886C421.477 398.1 420.829 397.442 420.053 396.968C419.278 396.495 418.398 396.221 417.493 396.171H413.236C412.431 396.174 411.66 396.498 411.091 397.072Z" fill="#3C3C3C"/>
<path fill-rule="evenodd" clip-rule="evenodd" d="M377.273 429.564C380.272 431.568 383.799 432.638 387.406 432.638C389.799 432.643 392.171 432.176 394.383 431.263C396.596 430.35 398.607 429.009 400.3 427.318C401.994 425.626 403.337 423.618 404.254 421.406C405.17 419.195 405.641 416.824 405.639 414.431C405.644 410.824 404.579 407.296 402.579 404.294C400.579 401.292 397.733 398.951 394.402 397.567C391.07 396.183 387.403 395.818 383.865 396.519C380.326 397.219 377.075 398.954 374.522 401.503C371.97 404.052 370.23 407.3 369.525 410.838C368.819 414.376 369.179 418.043 370.558 421.376C371.937 424.71 374.274 427.559 377.273 429.564ZM378.498 420.349C377.311 418.602 376.668 416.543 376.648 414.431C376.658 411.576 377.792 408.84 379.806 406.816C381.82 404.792 384.551 403.644 387.406 403.621C389.518 403.63 391.58 404.264 393.333 405.442C395.086 406.62 396.452 408.291 397.258 410.243C398.064 412.195 398.276 414.342 397.865 416.414C397.454 418.486 396.44 420.39 394.95 421.887C393.461 423.384 391.561 424.408 389.491 424.828C387.422 425.249 385.274 425.048 383.317 424.251C381.361 423.454 379.685 422.097 378.498 420.349Z" fill="#3C3C3C"/>
<path d="M325.412 428.08C325.412 430.094 327.045 431.727 329.059 431.727C331.073 431.727 332.705 430.094 332.705 428.08C332.705 426.066 331.073 424.433 329.059 424.433C327.045 424.433 325.412 426.066 325.412 428.08Z" fill="#3C3C3C"/>
<path d="M365.858 401.525C365.599 398.341 362.05 396.557 355.212 396.171C344.631 396.935 338.953 402.925 338.176 414.141C338.949 425.231 344.628 431.092 355.212 431.727C362.568 431.6 366.31 429.816 366.438 426.373C366.179 424.211 365.083 423.064 363.15 422.931C362.271 423.036 361.419 423.296 360.633 423.698C358.947 424.532 357.096 424.989 355.212 425.038C349.402 424.66 346.305 421.09 345.922 414.33C346.309 407.324 349.405 403.629 355.212 403.244C356.996 403.265 358.763 403.588 360.436 404.2C361.235 404.533 362.087 404.726 362.953 404.773C364.762 404.653 365.73 403.571 365.858 401.525Z" fill="#3C3C3C"/>
</svg>
